<?xml version="1.0" encoding="UTF-8" standalone="no"?>
<!DOCTYPE svg PUBLIC "-//W3C//DTD SVG 1.1//EN" "http://www.w3.org/Graphics/SVG/1.1/DTD/svg11.dtd">
<!-- Created with Vectornator (http://vectornator.io/) -->
<svg height="100%" stroke-miterlimit="10" style="fill-rule:nonzero;clip-rule:evenodd;stroke-linecap:round;stroke-linejoin:round;" version="1.1" viewBox="0 0 600 600" width="100%" xml:space="preserve" xmlns="http://www.w3.org/2000/svg" xmlns:xlink="http://www.w3.org/1999/xlink">
<defs/>
<g id="Layer-2">
<path d="M0 299.276C0 133.99 133.99 0 299.276 0L300.724 0C466.01 0 600 133.99 600 299.276L600 300.724C600 466.01 466.01 600 300.724 600L299.276 600C133.99 600 0 466.01 0 300.724L0 299.276Z" fill="#e30614" fill-rule="nonzero" opacity="1" stroke="none"/>
</g>
<g id="Layer-1">
<path d="M556.088 393.473C556.088 449.382 509.198 494.713 451.377 494.713C393.555 494.713 346.666 449.382 346.666 393.473C346.666 337.564 393.555 292.232 451.377 292.232C509.198 292.232 556.088 337.658 556.088 393.473Z" fill="#ffffff" fill-rule="nonzero" opacity="1" stroke="none"/>
<path d="M314.06 389.601C314.493 401.984 307.369 413.391 296.053 418.437C284.737 423.483 271.49 421.159 262.568 412.561C253.646 403.964 250.832 390.813 255.454 379.317C260.077 367.822 271.212 360.28 283.603 360.253C300.116 359.951 313.75 373.088 314.06 389.601Z" fill="#ffffff" fill-rule="nonzero" opacity="1" stroke="none"/>
<path d="M345.155 147.785C345.155 171.277 325.464 190.283 301.169 190.283C276.874 190.283 257.183 171.23 257.183 147.785C257.183 124.34 276.874 105.287 301.169 105.287C325.464 105.287 345.155 124.293 345.155 147.785Z" fill="#ffffff" fill-rule="nonzero" opacity="1" stroke="none"/>
<path d="M444.152 269.543C444.537 281.08 437.883 291.698 427.333 296.382C416.782 301.066 404.444 298.881 396.144 290.858C387.844 282.835 385.242 270.578 389.566 259.874C393.89 249.171 404.276 242.161 415.82 242.155C431.202 241.905 443.881 254.161 444.152 269.543Z" fill="#ffffff" fill-rule="nonzero" opacity="1" stroke="none"/>
<path d="M282.115 275.776C279.258 240.974 247.786 215.027 211.828 217.813C175.869 220.599 149.025 251.056 151.905 285.857C152.073 287.925 152.349 289.981 152.731 292.02C187.453 293.195 219.376 311.372 238.106 340.633C265.73 331.52 284.571 305.194 282.115 275.776Z" fill="#ffffff" fill-rule="nonzero" opacity="1" stroke="none"/>
<path d="M221.862 343.891C188.099 346.418 158.398 323.587 152.684 291.949C151.338 291.949 149.993 291.949 148.623 291.949C90.7781 291.949 43.9119 337.257 43.9119 393.166C43.9119 449.075 90.7781 494.406 148.623 494.406C206.468 494.406 253.334 449.075 253.334 393.166C253.342 374.579 248.078 356.372 238.153 340.657C232.878 342.407 227.406 343.494 221.862 343.891Z" fill="#ffffff" fill-rule="nonzero" opacity="1" stroke="none"/>
</g>
</svg>
