<?xml version="1.0" encoding="UTF-8"?>
<!DOCTYPE svg  PUBLIC '-//W3C//DTD SVG 1.1//EN'  'http://www.w3.org/Graphics/SVG/1.1/DTD/svg11.dtd'>
<svg clip-rule="evenodd" stroke-linecap="round" stroke-linejoin="round" stroke-miterlimit="10" version="1.1" viewBox="0 0 15 12.012" xml:space="preserve" xmlns="http://www.w3.org/2000/svg">

<clipPath id="a">
<rect width="15" height="12.012"/>
</clipPath>
<g clip-path="url(#a)">
<path d="m0 11.45v-7.4073c0-0.61279 0.37189-1.1624 0.94024-1.3893l6.2659-2.505c0.17776-0.072506 0.37657-0.072506 0.55666 0l6.2659 2.505c0.5684 0.22687 0.9403 0.77885 0.9403 1.3893v7.4073c0 0.3111-0.2503 0.5613-0.5614 0.5613h-1.1226c-0.3111 0-0.5614-0.2502-0.5614-0.5613v-6.1747c0-0.41399-0.3344-0.74845-0.7484-0.74845h-8.9814c-0.41399 0-0.74845 0.33446-0.74845 0.74845v6.1747c0 0.3111-0.25027 0.5613-0.56134 0.5613h-1.1227c-0.31107 0-0.56134-0.2502-0.56134-0.5613zm11.414 0.5613h-7.8587c-0.31107 0-0.56133-0.2502-0.56133-0.5613v-1.3098h8.9814v1.3098c0 0.3111-0.2503 0.5613-0.5614 0.5613zm-8.42-2.6196v-1.4969h8.9814v1.4969h-8.9814zm0-2.2454v-1.8711h8.9814v1.8711h-8.9814z" fill="#e30614"/>
</g>
</svg>
