<?xml version="1.0" encoding="UTF-8"?>
<!DOCTYPE svg  PUBLIC '-//W3C//DTD SVG 1.1//EN'  'http://www.w3.org/Graphics/SVG/1.1/DTD/svg11.dtd'>
<svg width="17pt" height="14.01pt" clip-rule="evenodd" stroke-linecap="round" stroke-linejoin="round" stroke-miterlimit="10" version="1.1" viewBox="0 0 17 14.01" xml:space="preserve" xmlns="http://www.w3.org/2000/svg">


<path d="m0.0026169 13.133v-8.4097c0-0.69573 0.42221-1.3198 1.0675-1.5773l7.1139-2.844c0.20182-0.082318 0.42753-0.082318 0.632 0l7.1139 2.844c0.6453 0.25758 1.0675 0.88426 1.0675 1.5773v8.4097c0 0.3532-0.2841 0.6373-0.6373 0.6373h-15.72c-0.35317 0-0.6373-0.2841-0.6373-0.6373z" fill="#fff"/>


<path d="m1.0155 12.402v-7.4073c0-0.61279 0.37188-1.1624 0.94024-1.3893l6.2659-2.505c0.17776-0.07251 0.37656-0.07251 0.55666 0l6.266 2.505c0.5683 0.22687 0.9402 0.77885 0.9402 1.3893v7.4073c0 0.3111-0.2503 0.5613-0.5613 0.5613h-1.1227c-0.3111 0-0.5614-0.2502-0.5614-0.5613v-6.1747c0-0.41399-0.3344-0.74845-0.7484-0.74845h-8.9814c-0.41399 0-0.74845 0.33446-0.74845 0.74845v6.1747c0 0.3111-0.25027 0.5613-0.56134 0.5613h-1.1227c-0.31108 0-0.56134-0.2502-0.56134-0.5613zm11.414 0.5613h-7.8588c-0.31107 0-0.56133-0.2502-0.56133-0.5613v-1.3098h8.9814v1.3098c0 0.3111-0.2503 0.5613-0.5613 0.5613zm-8.4201-2.6195v-1.4969h8.9814v1.4969h-8.9814zm0-2.2454v-1.8711h8.9814v1.8711h-8.9814z" fill="#e30614"/>

</svg>
